<?xml version="1.0" encoding="UTF-8"?>
<!DOCTYPE svg PUBLIC "-//W3C//DTD SVG 1.1//EN" "http://www.w3.org/Graphics/SVG/1.1/DTD/svg11.dtd">
<!-- Creator: CorelDRAW 2018 (64-Bit) -->
<svg xmlns="http://www.w3.org/2000/svg" xml:space="preserve" width="74.5491mm" height="14.7525mm" version="1.1" style="shape-rendering:geometricPrecision; text-rendering:geometricPrecision; image-rendering:optimizeQuality; fill-rule:evenodd; clip-rule:evenodd"
viewBox="0 0 5274.24 1043.72"
 xmlns:xlink="http://www.w3.org/1999/xlink">
 <defs>
  <style type="text/css">
   <![CDATA[
    .fil4 {fill:#332C2B}
    .fil2 {fill:#4DEF31}
    .fil0 {fill:#56E33D}
    .fil1 {fill:#F2F2F2}
    .fil3 {fill:url(#id3);fill-rule:nonzero}
   ]]>
  </style>
   <clipPath id="id0">
    <path d="M64.86 346.2l0 -293.8c9.88,-31.02 38.71,-52.13 71.31,-52.14l624.36 -0.25c50.48,-0.02 86.52,48.92 71.52,97.12l-61.26 196.86c-9.73,31.29 -38.69,52.62 -71.46,52.63l-624.36 0.25c-3.44,0 -6.81,-0.23 -10.11,-0.67z"/>
   </clipPath>
   <mask id="id1">
  <linearGradient id="id2" gradientUnits="userSpaceOnUse" x1="525.69" y1="277.03" x2="1077.3" y2="450.36">
   <stop offset="0" style="stop-opacity:0.92549; stop-color:white"/>
   <stop offset="0.270588" style="stop-opacity:-117.925; stop-color:white"/>
   <stop offset="1" style="stop-opacity:0; stop-color:white"/>
  </linearGradient>
    <rect style="fill:url(#id2)" x="776.42" y="183.9" width="449.47" height="854.95"/>
   </mask>
  <radialGradient id="id3" gradientUnits="userSpaceOnUse" gradientTransform="matrix(-1.24237 0.206253 -1.19548 -0.214341 6684 195)" cx="2654.96" cy="611.17" r="1100.85" fx="2654.96" fy="611.17">
   <stop offset="0" style="stop-opacity:1; stop-color:#56E33D"/>
   <stop offset="0.14902" style="stop-opacity:1; stop-color:#51D639"/>
   <stop offset="1" style="stop-opacity:1; stop-color:#4CC936"/>
  </radialGradient>
 </defs>
 <g id="Layer_x0020_1">
  <metadata id="CorelCorpID_0Corel-Layer"/>
  <path class="fil0" d="M770.78 294l61.26 -196.86c15,-48.21 -21.04,-97.14 -71.52,-97.12l-624.36 0.25c-32.77,0.01 -61.73,21.34 -71.46,52.63l-61.26 196.87c-15,48.2 21.04,97.14 71.53,97.12l624.36 -0.25c32.78,-0.01 61.73,-21.34 71.46,-52.63z"/>
  <path class="fil1" d="M949.57 186.68c19.11,-0.76 29.74,3.67 44.61,49.97l225.38 701.73c15.52,48.34 -20.53,97.77 -71.29,97.77l-209.34 0c-32.62,0 -61.49,-21.13 -71.36,-52.21l-80.93 -254.89c-11.33,-35.67 -9.15,-84.13 1.95,-119.59 38.31,-122.32 76.78,-244.34 115.22,-366.39 15.23,-48.39 26.66,-55.64 45.77,-56.4z"/>
  <path class="fil2" d="M554.35 0.01l206.18 0c50.49,0 86.5,48.94 71.48,97.14l-278.55 893.96c-9.75,31.28 -38.71,52.6 -71.48,52.6l-206.18 0c-50.49,0 -86.5,-48.95 -71.48,-97.15l278.56 -893.96c9.75,-31.29 38.71,-52.6 71.48,-52.6z"/>
  <g style="clip-path:url(#id0)">
   <image x="64.86" y="0" width="770.63" height="346.87" xlink:href="logo-1_Images\logo-1_ImgID1.png"/>
  </g>
  <path class="fil0" d="M554.35 0.01l206.18 0c50.49,0 86.5,48.94 71.48,97.14l-278.55 893.96c-9.75,31.28 -38.71,52.6 -71.48,52.6l-206.18 0c-50.49,0 -86.5,-48.95 -71.48,-97.15l278.56 -893.96c9.75,-31.29 38.71,-52.6 71.48,-52.6z"/>
  <path class="fil3" d="M1826.75 264.07l0 76.93 -126.63 0 0 398.26 -95.31 0 0 -398.26 -126.63 0 0 -76.93 348.56 0zm44.93 285.25c0,-38.13 7.61,-71.94 22.81,-101.44 15.2,-29.5 35.86,-52.19 61.95,-68.07 26.09,-15.89 55.25,-23.83 87.48,-23.83 28.14,0 52.76,5.67 73.86,17.02 21.1,11.35 38.01,25.65 50.72,42.89l0 -53.78 95.99 0 0 377.15 -95.99 0 0 -55.14c-12.25,17.7 -29.16,32.33 -50.72,43.91 -21.56,11.57 -46.4,17.36 -74.55,17.36 -31.77,0 -60.7,-8.17 -86.79,-24.51 -26.1,-16.34 -46.75,-39.37 -61.95,-69.1 -15.2,-29.73 -22.81,-63.88 -22.81,-102.46zm296.83 1.36c0,-23.14 -4.54,-43 -13.62,-59.56 -9.08,-16.57 -21.33,-29.28 -36.76,-38.13 -15.43,-8.85 -31.99,-13.27 -49.69,-13.27 -17.7,0 -34.04,4.31 -49.01,12.93 -14.98,8.62 -27.12,21.22 -36.43,37.78 -9.3,16.57 -13.95,36.19 -13.95,58.89 0,22.69 4.65,42.55 13.95,59.57 9.3,17.02 21.56,30.07 36.77,39.15 15.2,9.08 31.43,13.61 48.67,13.61 17.7,0 34.26,-4.42 49.69,-13.27 15.43,-8.85 27.68,-21.56 36.76,-38.13 9.08,-16.56 13.62,-36.42 13.62,-59.57zm398.26 -194.02c44.93,0 81.24,14.19 108.92,42.55 27.68,28.37 41.53,67.97 41.53,118.8l0 221.25 -95.31 0 0 -208.32c0,-29.95 -7.49,-52.99 -22.46,-69.1 -14.98,-16.11 -35.4,-24.17 -61.28,-24.17 -26.32,0 -47.08,8.06 -62.29,24.17 -15.2,16.11 -22.81,39.15 -22.81,69.1l0 208.32 -95.31 0 0 -377.15 95.31 0 0 46.97c12.71,-16.34 28.94,-29.16 48.67,-38.46 19.75,-9.3 41.42,-13.96 65.02,-13.96zm216.48 192.66c0,-38.13 7.61,-71.94 22.81,-101.44 15.2,-29.5 35.86,-52.19 61.95,-68.07 26.09,-15.89 55.25,-23.83 87.48,-23.83 28.14,0 52.76,5.67 73.86,17.02 21.1,11.35 38.01,25.65 50.72,42.89l0 -53.78 95.99 0 0 377.15 -95.99 0 0 -55.14c-12.25,17.7 -29.16,32.33 -50.72,43.91 -21.56,11.57 -46.4,17.36 -74.55,17.36 -31.77,0 -60.7,-8.17 -86.79,-24.51 -26.1,-16.34 -46.75,-39.37 -61.95,-69.1 -15.2,-29.73 -22.81,-63.88 -22.81,-102.46zm296.83 1.36c0,-23.14 -4.54,-43 -13.62,-59.56 -9.08,-16.57 -21.33,-29.28 -36.76,-38.13 -15.43,-8.85 -31.99,-13.27 -49.69,-13.27 -17.7,0 -34.04,4.31 -49.01,12.93 -14.98,8.62 -27.12,21.22 -36.43,37.78 -9.3,16.57 -13.95,36.19 -13.95,58.89 0,22.69 4.65,42.55 13.95,59.57 9.3,17.02 21.56,30.07 36.77,39.15 15.2,9.08 31.43,13.61 48.67,13.61 17.7,0 34.26,-4.42 49.69,-13.27 15.43,-8.85 27.68,-21.56 36.76,-38.13 9.08,-16.56 13.62,-36.42 13.62,-59.57zm657.64 -194.02c46.29,0 83.62,14.19 111.99,42.55 28.37,28.37 42.55,67.97 42.55,118.8l0 221.25 -95.31 0 0 -208.32c0,-29.5 -7.49,-52.08 -22.47,-67.74 -14.98,-15.66 -35.4,-23.48 -61.27,-23.48 -25.87,0 -46.4,7.82 -61.61,23.48 -15.2,15.66 -22.8,38.24 -22.8,67.74l0 208.32 -95.31 0 0 -208.32c0,-29.5 -7.49,-52.08 -22.46,-67.74 -14.98,-15.66 -35.4,-23.48 -61.28,-23.48 -26.32,0 -47.08,7.82 -62.29,23.48 -15.2,15.66 -22.81,38.24 -22.81,67.74l0 208.32 -95.31 0 0 -377.15 95.31 0 0 45.61c12.25,-15.88 28.03,-28.36 47.32,-37.44 19.29,-9.08 40.5,-13.62 63.65,-13.62 29.5,0 55.83,6.24 78.97,18.72 23.15,12.48 41.08,30.29 53.78,53.44 12.25,-21.78 30.07,-39.26 53.44,-52.42 23.38,-13.17 48.67,-19.75 75.91,-19.75zm220.57 192.66c0,-38.13 7.61,-71.94 22.81,-101.44 15.2,-29.5 35.86,-52.19 61.95,-68.07 26.09,-15.89 55.25,-23.83 87.48,-23.83 28.14,0 52.76,5.67 73.86,17.02 21.1,11.35 38.01,25.65 50.72,42.89l0 -53.78 95.99 0 0 377.15 -95.99 0 0 -55.14c-12.25,17.7 -29.16,32.33 -50.72,43.91 -21.56,11.57 -46.4,17.36 -74.55,17.36 -31.77,0 -60.7,-8.17 -86.79,-24.51 -26.1,-16.34 -46.75,-39.37 -61.95,-69.1 -15.2,-29.73 -22.81,-63.88 -22.81,-102.46zm296.83 1.36c0,-23.14 -4.54,-43 -13.62,-59.56 -9.08,-16.57 -21.33,-29.28 -36.76,-38.13 -15.43,-8.85 -31.99,-13.27 -49.69,-13.27 -17.7,0 -34.04,4.31 -49.01,12.93 -14.98,8.62 -27.12,21.22 -36.43,37.78 -9.3,16.57 -13.95,36.19 -13.95,58.89 0,22.69 4.65,42.55 13.95,59.57 9.3,17.02 21.56,30.07 36.77,39.15 15.2,9.08 31.43,13.61 48.67,13.61 17.7,0 34.26,-4.42 49.69,-13.27 15.43,-8.85 27.68,-21.56 36.76,-38.13 9.08,-16.56 13.62,-36.42 13.62,-59.57zm284.56 -134.11c12.25,-17.25 29.16,-31.66 50.72,-43.23 21.56,-11.57 46.18,-17.36 73.87,-17.36 32.22,0 61.38,7.94 87.48,23.83 26.09,15.88 46.74,38.46 61.95,67.73 15.2,29.28 22.81,63.2 22.81,101.78 0,38.58 -7.61,72.73 -22.81,102.46 -15.2,29.73 -35.86,52.76 -61.95,69.1 -26.1,16.34 -55.26,24.51 -87.48,24.51 -27.69,0 -52.09,-5.67 -73.19,-17.02 -21.1,-11.34 -38.23,-25.64 -51.4,-42.89l0 233.51 -95.31 0 0 -556.88 95.31 0 0 54.46zm199.47 132.75c0,-22.7 -4.65,-42.32 -13.95,-58.89 -9.3,-16.56 -21.56,-29.16 -36.76,-37.78 -15.2,-8.62 -31.66,-12.93 -49.36,-12.93 -17.24,0 -33.47,4.42 -48.67,13.27 -15.2,8.85 -27.46,21.67 -36.76,38.47 -9.3,16.79 -13.96,36.53 -13.96,59.22 0,22.7 4.66,42.43 13.96,59.23 9.3,16.8 21.56,29.62 36.76,38.47 15.2,8.85 31.43,13.27 48.67,13.27 17.7,0 34.16,-4.53 49.36,-13.61 15.2,-9.08 27.46,-22.02 36.76,-38.81 9.3,-16.8 13.95,-36.76 13.95,-59.91zm142.28 0c0,-38.13 7.61,-71.94 22.81,-101.44 15.2,-29.5 35.86,-52.19 61.95,-68.07 26.09,-15.89 55.25,-23.83 87.48,-23.83 28.14,0 52.76,5.67 73.86,17.02 21.1,11.35 38.01,25.65 50.72,42.89l0 -53.78 95.99 0 0 377.15 -95.99 0 0 -55.14c-12.25,17.7 -29.16,32.33 -50.72,43.91 -21.56,11.57 -46.4,17.36 -74.55,17.36 -31.77,0 -60.7,-8.17 -86.79,-24.51 -26.1,-16.34 -46.75,-39.37 -61.95,-69.1 -15.2,-29.73 -22.81,-63.88 -22.81,-102.46zm296.83 1.36c0,-23.14 -4.54,-43 -13.62,-59.56 -9.08,-16.57 -21.33,-29.28 -36.76,-38.13 -15.43,-8.85 -31.99,-13.27 -49.69,-13.27 -17.7,0 -34.04,4.31 -49.01,12.93 -14.98,8.62 -27.12,21.22 -36.43,37.78 -9.3,16.57 -13.95,36.19 -13.95,58.89 0,22.69 4.65,42.55 13.95,59.57 9.3,17.02 21.56,30.07 36.77,39.15 15.2,9.08 31.43,13.61 48.67,13.61 17.7,0 34.26,-4.42 49.69,-13.27 15.43,-8.85 27.68,-21.56 36.76,-38.13 9.08,-16.56 13.62,-36.42 13.62,-59.57z"/>
  <path class="fil4" style="mask:url(#id1)" d="M949.57 186.68c19.11,-0.76 29.74,3.67 44.61,49.97l225.38 701.73c15.52,48.34 -20.53,97.77 -71.29,97.77l-209.34 0c-32.62,0 -61.49,-21.13 -71.36,-52.21l-80.93 -254.89c-11.33,-35.67 -9.15,-84.13 1.95,-119.59 38.31,-122.32 76.78,-244.34 115.22,-366.39 15.23,-48.39 26.66,-55.64 45.77,-56.4z"/>
 </g>
</svg>
