<?xml version="1.0" encoding="UTF-8"?>
<!DOCTYPE svg PUBLIC "-//W3C//DTD SVG 1.1//EN" "http://www.w3.org/Graphics/SVG/1.1/DTD/svg11.dtd">
<!-- Creator: CorelDRAW 2019 (64-Bit) -->
<svg xmlns="http://www.w3.org/2000/svg" xml:space="preserve" width="17.3275mm" height="14.7524mm" version="1.1" style="shape-rendering:geometricPrecision; text-rendering:geometricPrecision; image-rendering:optimizeQuality; fill-rule:evenodd; clip-rule:evenodd"
viewBox="0 0 244.79 208.41"
 xmlns:xlink="http://www.w3.org/1999/xlink">
 <defs>
  <style type="text/css">
   <![CDATA[
    .fil4 {fill:none}
    .fil3 {fill:#332C2B}
    .fil0 {fill:#56E33D}
    .fil1 {fill:#F2F2F2}
    .fil2 {fill:url(#id4)}
   ]]>
  </style>
   <clipPath id="id0">
    <path d="M166.37 11.29l0 7.31c-0.07,0.27 -0.14,0.54 -0.23,0.81l-12.23 39.31 0 0c-1.94,6.25 -7.72,10.51 -14.27,10.51l-102.52 0.04 0 -69.21 114.74 -0.05c7.18,-0 12.89,4.95 14.51,11.28z"/>
   </clipPath>
   <clipPath id="id1">
    <path d="M155.04 207.44l89.75 0 0 -170.72 -89.75 0 0 170.72z"/>
   </clipPath>
     <mask id="id2">
  <linearGradient id="id3" gradientUnits="userSpaceOnUse" x1="105.98" y1="55.74" x2="214.88" y2="90.06">
   <stop offset="0" style="stop-opacity:0.92549; stop-color:white"/>
   <stop offset="0.270588" style="stop-opacity:0; stop-color:white"/>
   <stop offset="1" style="stop-opacity:0; stop-color:white"/>
  </linearGradient>
      <rect style="fill:url(#id3)" x="155.04" y="36.72" width="89.75" height="170.72"/>
     </mask>
  <linearGradient id="id4" gradientUnits="userSpaceOnUse" x1="104.83" y1="55.31" x2="215.06" y2="89.86">
   <stop offset="0" style="stop-opacity:0.92549; stop-color:white"/>
   <stop offset="0.270588" style="stop-opacity:0; stop-color:white"/>
   <stop offset="1" style="stop-opacity:0; stop-color:white"/>
  </linearGradient>
 </defs>
 <g id="Layer_x0020_1">
  <metadata id="CorelCorpID_0Corel-Layer"/>
  <path class="fil0" d="M153.91 58.71l12.23 -39.31c2.99,-9.63 -4.2,-19.4 -14.28,-19.39l-124.67 0.05c-6.54,0 -12.33,4.26 -14.27,10.51l-12.23 39.31c-2.99,9.62 4.2,19.4 14.28,19.39l124.67 -0.05c6.55,-0 12.33,-4.26 14.27,-10.51l-0 -0z"/>
  <path class="fil1" d="M189.61 37.28c3.82,-0.15 5.94,0.73 8.91,9.98l45 140.12c3.1,9.65 -4.1,19.52 -14.24,19.52l-41.8 0c-6.51,0 -12.28,-4.22 -14.25,-10.43l-16.16 -50.9c-2.26,-7.12 -1.83,-16.8 0.39,-23.88 7.65,-24.42 15.33,-48.79 23.01,-73.16 3.04,-9.66 5.32,-11.11 9.14,-11.26l-0 0z"/>
  <g style="clip-path:url(#id0)">
   <image x="37.12" y="0" width="129.25" height="69.26" xlink:href="logo_Images\logo_ImgID1.png"/>
  </g>
  <path class="fil0" d="M110.69 0l41.17 0c10.08,0 17.27,9.77 14.27,19.4l-55.62 178.51c-1.95,6.25 -7.73,10.5 -14.27,10.5l-41.17 0c-10.08,0 -17.27,-9.77 -14.27,-19.4l55.62 -178.51c1.95,-6.25 7.73,-10.5 14.27,-10.5l-0 0z"/>
  <polygon class="fil2" points="155.04,207.44 244.79,207.44 244.79,36.72 155.04,36.72 "/>
  <g style="clip-path:url(#id1)">
   <g id="_2847768582848">
    <path id="1" class="fil3" style="mask:url(#id2)" d="M189.61 37.28c3.82,-0.15 5.94,0.73 8.91,9.98l45 140.12c3.1,9.65 -4.1,19.52 -14.24,19.52l-41.8 0c-6.51,0 -12.28,-4.22 -14.25,-10.43l-16.16 -50.9c-2.26,-7.12 -1.83,-16.8 0.39,-23.88 7.65,-24.42 15.33,-48.79 23.01,-73.16 3.04,-9.66 5.32,-11.11 9.14,-11.26l-0 0z"/>
   </g>
  </g>
  <polygon class="fil4" points="155.04,207.44 244.79,207.44 244.79,36.72 155.04,36.72 "/>
 </g>
</svg>
