<?xml version="1.0" encoding="UTF-8"?>
<!DOCTYPE svg PUBLIC "-//W3C//DTD SVG 1.1//EN" "http://www.w3.org/Graphics/SVG/1.1/DTD/svg11.dtd">
<!-- Creator: CorelDRAW 2019 (64-Bit) -->
<svg xmlns="http://www.w3.org/2000/svg" xml:space="preserve" width="53.6557mm" height="9.2569mm" version="1.1" style="shape-rendering:geometricPrecision; text-rendering:geometricPrecision; image-rendering:optimizeQuality; fill-rule:evenodd; clip-rule:evenodd"
viewBox="0 0 3560.15 614.21"
 xmlns:xlink="http://www.w3.org/1999/xlink">
 <defs>
  <style type="text/css">
   <![CDATA[
    .fil0 {fill:url(#id0);fill-rule:nonzero}
   ]]>
  </style>
  <radialGradient id="id0" gradientUnits="userSpaceOnUse" gradientTransform="matrix(-1.24139 0.20609 -1.19455 -0.214174 2942 160)" cx="1139.25" cy="325.53" r="1032.45" fx="1139.25" fy="325.53">
   <stop offset="0" style="stop-opacity:1; stop-color:#56E33D"/>
   <stop offset="0.14902" style="stop-opacity:1; stop-color:#51D639"/>
   <stop offset="1" style="stop-opacity:1; stop-color:#4CC936"/>
  </radialGradient>
 </defs>
 <g id="Layer_x0020_1">
  <metadata id="CorelCorpID_0Corel-Layer"/>
  <path class="fil0" d="M326.91 0l0 72.15 -118.76 0 0 373.51 -89.39 0 0 -373.51 -118.76 0 0 -72.15 326.89 0 0.02 0zm42.14 267.52c0,-35.76 7.14,-67.47 21.39,-95.14 14.25,-27.67 33.63,-48.95 58.1,-63.84 24.47,-14.9 51.81,-22.35 82.04,-22.35 26.39,0 49.48,5.31 69.27,15.96 19.79,10.64 35.65,24.06 47.57,40.22l0 -50.44 90.03 0 0 353.71 -90.03 0 0 -51.71c-11.49,16.6 -27.35,30.32 -47.57,41.18 -20.22,10.85 -43.51,16.28 -69.91,16.28 -29.8,0 -56.93,-7.66 -81.39,-22.98 -24.48,-15.33 -43.85,-36.92 -58.1,-64.81 -14.25,-27.88 -21.39,-59.91 -21.39,-96.09l-0.01 0zm278.38 1.28c0,-21.7 -4.26,-40.33 -12.77,-55.86 -8.51,-15.54 -20.01,-27.46 -34.48,-35.76 -14.47,-8.3 -30,-12.45 -46.6,-12.45 -16.6,0 -31.92,4.04 -45.96,12.13 -14.05,8.08 -25.43,19.9 -34.16,35.43 -8.73,15.54 -13.08,33.94 -13.08,55.23 0,21.28 4.36,39.9 13.08,55.87 8.73,15.96 20.22,28.2 34.48,36.72 14.25,8.51 29.47,12.77 45.64,12.77 16.6,0 32.13,-4.15 46.6,-12.45 14.47,-8.3 25.96,-20.22 34.48,-35.76 8.51,-15.53 12.77,-34.16 12.77,-55.87l0 -0.01zm373.51 -181.96c42.14,0 76.19,13.31 102.15,39.9 25.96,26.61 38.95,63.74 38.95,111.42l0 207.5 -89.39 0 0 -195.37c0,-28.09 -7.03,-49.7 -21.07,-64.81 -14.05,-15.11 -33.2,-22.67 -57.47,-22.67 -24.68,0 -44.16,7.56 -58.42,22.67 -14.25,15.11 -21.39,36.72 -21.39,64.81l0 195.37 -89.39 0 0 -353.71 89.39 0 0 44.05c11.92,-15.33 27.14,-27.35 45.64,-36.07 18.53,-8.73 38.85,-13.09 60.98,-13.09l0.02 -0.01zm203.03 180.68c0,-35.76 7.14,-67.47 21.39,-95.14 14.25,-27.67 33.63,-48.95 58.1,-63.84 24.47,-14.9 51.81,-22.35 82.04,-22.35 26.39,0 49.48,5.31 69.27,15.96 19.79,10.64 35.65,24.06 47.57,40.22l0 -50.44 90.03 0 0 353.71 -90.03 0 0 -51.71c-11.49,16.6 -27.35,30.32 -47.57,41.18 -20.22,10.85 -43.51,16.28 -69.91,16.28 -29.8,0 -56.93,-7.66 -81.39,-22.98 -24.48,-15.33 -43.85,-36.92 -58.1,-64.81 -14.25,-27.88 -21.39,-59.91 -21.39,-96.09l-0.01 0zm278.38 1.28c0,-21.7 -4.26,-40.33 -12.77,-55.86 -8.51,-15.54 -20.01,-27.46 -34.48,-35.76 -14.47,-8.3 -30,-12.45 -46.6,-12.45 -16.6,0 -31.92,4.04 -45.96,12.13 -14.05,8.08 -25.43,19.9 -34.16,35.43 -8.73,15.54 -13.08,33.94 -13.08,55.23 0,21.28 4.36,39.9 13.08,55.87 8.73,15.96 20.22,28.2 34.48,36.72 14.25,8.51 29.47,12.77 45.64,12.77 16.6,0 32.13,-4.15 46.6,-12.45 14.47,-8.3 25.96,-20.22 34.48,-35.76 8.51,-15.53 12.77,-34.16 12.77,-55.87l0 -0.01zm616.77 -181.96c43.41,0 78.42,13.31 105.03,39.9 26.61,26.61 39.9,63.74 39.9,111.42l0 207.5 -89.39 0 0 -195.37c0,-27.67 -7.03,-48.84 -21.07,-63.53 -14.05,-14.68 -33.2,-22.02 -57.46,-22.02 -24.26,0 -43.51,7.33 -57.78,22.02 -14.25,14.68 -21.39,35.86 -21.39,63.53l0 195.37 -89.39 0 0 -195.37c0,-27.67 -7.03,-48.84 -21.07,-63.53 -14.05,-14.68 -33.2,-22.02 -57.47,-22.02 -24.68,0 -44.16,7.33 -58.42,22.02 -14.25,14.68 -21.39,35.86 -21.39,63.53l0 195.37 -89.39 0 0 -353.71 89.39 0 0 42.78c11.49,-14.9 26.29,-26.6 44.38,-35.11 18.09,-8.51 37.98,-12.77 59.7,-12.77 27.67,0 52.36,5.85 74.06,17.56 21.71,11.7 38.52,28.41 50.44,50.12 11.49,-20.43 28.2,-36.82 50.12,-49.16 21.93,-12.35 45.64,-18.53 71.2,-18.53l0.01 0.01zm206.86 180.68c0,-35.76 7.14,-67.47 21.39,-95.14 14.25,-27.67 33.63,-48.95 58.1,-63.84 24.47,-14.9 51.81,-22.35 82.04,-22.35 26.39,0 49.48,5.31 69.27,15.96 19.79,10.64 35.65,24.06 47.57,40.22l0 -50.44 90.03 0 0 353.71 -90.03 0 0 -51.71c-11.49,16.6 -27.35,30.32 -47.57,41.18 -20.22,10.85 -43.51,16.28 -69.91,16.28 -29.8,0 -56.93,-7.66 -81.39,-22.98 -24.48,-15.33 -43.85,-36.92 -58.1,-64.81 -14.25,-27.88 -21.39,-59.91 -21.39,-96.09l-0.01 0zm278.39 1.28c0,-21.7 -4.26,-40.33 -12.77,-55.86 -8.51,-15.54 -20.01,-27.46 -34.48,-35.76 -14.47,-8.3 -30,-12.45 -46.6,-12.45 -16.6,0 -31.92,4.04 -45.96,12.13 -14.05,8.08 -25.43,19.9 -34.16,35.43 -8.73,15.54 -13.08,33.94 -13.08,55.23 0,21.28 4.36,39.9 13.08,55.87 8.73,15.96 20.22,28.2 34.48,36.72 14.25,8.51 29.47,12.77 45.64,12.77 16.6,0 32.13,-4.15 46.6,-12.45 14.47,-8.3 25.96,-20.22 34.48,-35.76 8.51,-15.53 12.77,-34.16 12.77,-55.87l0 -0.01zm266.87 -125.78c11.49,-16.18 27.35,-29.69 47.57,-40.54 20.22,-10.85 43.31,-16.28 69.28,-16.28 30.22,0 57.57,7.44 82.04,22.35 24.47,14.9 43.83,36.07 58.1,63.52 14.25,27.46 21.39,59.27 21.39,95.45 0,36.18 -7.14,68.21 -21.39,96.09 -14.25,27.88 -33.63,49.48 -58.1,64.81 -24.48,15.33 -51.83,22.98 -82.04,22.98 -25.97,0 -48.85,-5.31 -68.64,-15.96 -19.79,-10.64 -35.86,-24.05 -48.2,-40.22l0 219 -89.39 0 0 -522.27 89.39 0 0 51.08zm187.07 124.5c0,-21.29 -4.36,-39.69 -13.08,-55.23 -8.73,-15.53 -20.22,-27.35 -34.48,-35.43 -14.25,-8.08 -29.69,-12.13 -46.29,-12.13 -16.17,0 -31.39,4.15 -45.64,12.45 -14.25,8.3 -25.75,20.32 -34.48,36.08 -8.73,15.75 -13.09,34.26 -13.09,55.54 0,21.29 4.37,39.79 13.09,55.55 8.73,15.76 20.22,27.78 34.48,36.08 14.25,8.3 29.47,12.45 45.64,12.45 16.6,0 32.03,-4.25 46.29,-12.77 14.25,-8.51 25.75,-20.65 34.48,-36.4 8.73,-15.76 13.08,-34.48 13.08,-56.19zm133.44 0c0,-35.76 7.14,-67.47 21.39,-95.14 14.25,-27.67 33.63,-48.95 58.1,-63.84 24.47,-14.9 51.81,-22.35 82.04,-22.35 26.39,0 49.48,5.31 69.27,15.96 19.79,10.64 35.65,24.06 47.57,40.22l0 -50.44 90.03 0 0 353.71 -90.03 0 0 -51.71c-11.49,16.6 -27.35,30.32 -47.57,41.18 -20.22,10.85 -43.51,16.28 -69.91,16.28 -29.8,0 -56.93,-7.66 -81.39,-22.98 -24.48,-15.33 -43.85,-36.92 -58.1,-64.81 -14.25,-27.88 -21.39,-59.91 -21.39,-96.09l-0.01 0zm278.38 1.28c0,-21.7 -4.26,-40.33 -12.77,-55.86 -8.51,-15.54 -20.01,-27.46 -34.48,-35.76 -14.47,-8.3 -30,-12.45 -46.6,-12.45 -16.6,0 -31.92,4.04 -45.96,12.13 -14.05,8.08 -25.43,19.9 -34.16,35.43 -8.73,15.54 -13.08,33.94 -13.08,55.23 0,21.28 4.36,39.9 13.08,55.87 8.73,15.96 20.22,28.2 34.48,36.72 14.25,8.51 29.47,12.77 45.64,12.77 16.6,0 32.13,-4.15 46.6,-12.45 14.47,-8.3 25.96,-20.22 34.48,-35.76 8.51,-15.53 12.77,-34.16 12.77,-55.87l0 -0.01z"/>
 </g>
</svg>
